# xmcd
#
# Track frame offsets:
#	150
#	16407
#	33437
#	47857
#	60872
#	72362
#	105140
#	122540
#	148435
#	175165
#	188700
#	201530
#	223110
#	236285
#	249680
#	261702
#	278975
#	293987
#	311057
#
# Disc length: 4300 seconds
#
# Revision: 3
# Processed by: cddbd v1.5.1PL2 Copyright (c) Steve Scherf et al.
# Submitted via: dBpowerAMP V4.0
#
DISCID=2a10ca13
DTITLE=Hank Williams, Jr - The Bocephus Box: The Hank Williams Jr
DYEAR=1992
DGENRE=Country
TTITLE0=Honkytonk Women (live)
TTITLE1=Walk This Way (live)
TTITLE2=Heaven Can't Be Found
TTITLE3=Thanks A Lot
TTITLE4=All My Rowdy Friends (Have Settled Down) (solo) (live)
TTITLE5=A Country Boy Can Survive (live)
TTITLE6=You're Gonna Be A Sorry Man
TTITLE7=Tuesday's Gone
TTITLE8=Mannish Boy
TTITLE9=Finders Are Keepers
TTITLE10=There's A Tear In My Beer
TTITLE11=Big Mamou
TTITLE12=Man To Man
TTITLE13=Stoned At The Jukebox
TTITLE14=Ain't Nobody's Business
TTITLE15=Lone Wolf
TTITLE16=If It Will It Will
TTITLE17=Hotel Whiskey
TTITLE18=Low Down Blues (live)
EXTD=
EXTT0=
EXTT1=
EXTT2=
EXTT3=
EXTT4=
EXTT5=
EXTT6=
EXTT7=
EXTT8=
EXTT9=
EXTT10=
EXTT11=
EXTT12=
EXTT13=
EXTT14=
EXTT15=
EXTT16=
EXTT17=
EXTT18=
PLAYORDER=
